REM COMMENT "Generated by IcecastMetadataRecorder https://github.com/eshaz/icecast-metadata-js"
REM BR "16"
REM METAINT "64"
REM DATE "2020-07-29T21:16:11.222Z"
TITLE "isics-all"
FILE "isics-all.mp3" WAVE
  TRACK 1 AUDIO
    TITLE "2020-07-29T21:27:27.950Z TO:1101 Polk County - Westcom Law Enforcement 1 FROM:UNKNOWN"
    INDEX 01 11:16:55
  TRACK 2 AUDIO
    TITLE "2020-07-29T21:27:29.318Z TO:48696 Polk County - UnityPoint Health Security FROM:10779039"
    INDEX 01 11:18:07
  TRACK 3 AUDIO
    TITLE "2020-07-29T21:27:33.566Z TO:48696 Polk County - UnityPoint Health Security FROM:120"
    INDEX 01 11:22:26
  TRACK 4 AUDIO
    TITLE "2020-07-29T21:27:34.214Z TO:24631 Dallas County Fire/EMS Operations FROM:2559984"
    INDEX 01 11:22:74
  TRACK 5 AUDIO
    TITLE "2020-07-29T21:27:37.742Z TO:48696 Polk County - UnityPoint Health Security FROM:10779039"
    INDEX 01 11:26:39
  TRACK 6 AUDIO
    TITLE "2020-07-29T21:27:40.550Z TO:48696 Polk County - UnityPoint Health Security FROM:120"
    INDEX 01 11:29:25
  TRACK 7 AUDIO
    TITLE "2020-07-29T21:27:43.358Z TO:24605 Dallas County Law 1 FROM:10987"
    INDEX 01 11:32:10
  TRACK 8 AUDIO
    TITLE "2020-07-29T21:27:57.326Z TO:5105 Department of Public Safety - Area B Law 5B - DPS District #5 + #6 FROM:10971"
    INDEX 01 11:46:08
  TRACK 9 AUDIO
    TITLE "2020-07-29T21:28:00.134Z TO:P:24605 [14002] Dallas County Law 1, Region 4 Interoperability Tac 42 FROM:11360"
    INDEX 01 11:48:68
  TRACK 10 AUDIO
    TITLE "END"
    INDEX 01 11:58:53